# File generated by ImageToStl.com - Free Image and 3D model conversion tools

mtllib pokemon_137_-_porygon.mtl

o obj1
v 0.115427 0.67959599 0.29865304
v 0.153116 0.61146598 0.26866004
v 0.17483801 0.67894601 0.08243803
v 0.119444 0.762784 0.11838103
v 0.086985 0.74271201 0.20355703
v 0.17743701 0.58428799 0.15301403
v -0.115427 0.67959599 0.29865304
v -0.119444 0.762784 0.11838103
v -0.17483801 0.67894601 0.08243803
v -0.153116 0.61146598 0.26866004
v -0.17743701 0.58428799 0.15301403
v -0.086985 0.74271201 0.20355703
vn 0.87083 0.43014 0.23799
vn 0.49412 0.78516 0.37333
vn 0.49412 0.78516 0.37333
vn 0.97374 0.15267 0.1689
vn -0.87083 0.43014 0.23799
vn -0.97374 0.15267 0.1689
vn -0.49412 0.78516 0.37333
vn -0.49412 0.78516 0.37333
vt 0.0682 0.45431
vt 0.07189 0.57194
vt 0.35205 0.59417
vt 0.34809 0.4437
vt 0.22444 0.39851
vt 0.20724 0.67649
vt 0.07189 0.57194
usemtl mat0
f 1/1/1 2/2/1 3/3/1
f 3/3/1 4/4/1 1/1/1
f 4/4/2 5/5/3 1/1/2
f 3/3/4 2/2/4 6/6/4
f 7/1/5 8/4/5 9/3/5
f 9/3/5 10/7/5 7/1/5
f 10/7/6 9/3/6 11/6/6
f 7/1/7 12/5/8 8/4/7
# Vertices: 12, normals: 8, texture coordinates: 7, faces: 8

o obj2
v 0.219538 0.12919701 -0.29778501
v 0.219538 0.00352401 -0.29778501
v 0.219538 0.00352399 0.25799
v 0.219538 0.09006799 0.25801501
v 0.40084299 0.05900099 0.25802499
v 0.40084299 -1E-08 0.25799
v 0.40084299 1E-08 -0.29778501
v 0.40084299 0.07842401 -0.29778501
v 0.219538 0.00352401 -0.29778501
v 0.40084299 1E-08 -0.29778501
v 0.40084299 -1E-08 0.25799
v 0.219538 0.00352399 0.25799
v 0.219538 0.09006799 0.25801501
v 0.219538 0.00352399 0.25799
v 0.40084299 -1E-08 0.25799
v 0.40084299 0.05900099 0.25802499
v 0.219538 0.12919701 -0.29778501
v 0.40084299 0.07842401 -0.29778501
v 0.40084299 1E-08 -0.29778501
v 0.219538 0.00352401 -0.29778501
v 0.40084299 0.182735 -0.08404899
v 0.219538 0.25700301 -0.08404899
v 0.219538 0.09006799 0.25801501
v 0.40084299 0.05900099 0.25802499
v 0.40084299 0.182735 -0.08404899
v 0.40084299 0.07842401 -0.29778501
v 0.219538 0.12919701 -0.29778501
v 0.219538 0.25700301 -0.08404899
v 0.219538 0.25700301 -0.08404899
v 0.40084299 0.182735 -0.08404899
vn -1 -0 0
vn 1 0 0
vn -0.01943 -0.99981 0
vn -7E-05 -0.00041 1
vn 0 0 -1
vn 0.25828 0.88915 0.37777
vn 0.29002 0.84103 -0.45668
vt 0.8696 0.72083
vt 0.94324 0.72084
vt 0.94327 0.39519
vt 0.89256 0.39517
vt 0.47382 0.67497
vt 0.47383 0.70954
vt 0.79948 0.70957
vt 0.79949 0.66362
vt 0.47263 0.74955
vt 0.47262 0.85578
vt 0.79827 0.8558
vt 0.79828 0.74957
vt 0.43121 0.38215
vt 0.43225 0.43284
vt 0.53846 0.43066
vt 0.53774 0.3961
vt 0.9379 0.86143
vt 0.91032 0.75517
vt 0.86437 0.75513
vt 0.86426 0.86136
vt 0.78908 0.53156
vt 0.80435 0.41891
vt 0.58208 0.42454
vt 0.57659 0.53152
vt 0.54603 0.60103
vt 0.54605 0.46181
vt 0.43704 0.47393
vt 0.43364 0.61967
vt 0.79473 0.59559
vt 0.67426 0.60249
usemtl mat0
f 13/8/9 14/9/9 15/10/9
f 15/10/9 16/11/9 13/8/9
f 17/12/10 18/13/10 19/14/10
f 19/14/10 20/15/10 17/12/10
f 21/16/11 22/17/11 23/18/11
f 23/18/11 24/19/11 21/16/11
f 25/20/12 26/21/12 27/22/12
f 27/22/12 28/23/12 25/20/12
f 29/24/13 30/25/13 31/26/13
f 31/26/13 32/27/13 29/24/13
f 33/28/14 34/29/14 35/30/14
f 35/30/14 36/31/14 33/28/14
f 37/32/15 38/33/15 39/34/15
f 39/34/15 40/35/15 37/32/15
f 13/8/9 16/11/9 41/36/9
f 17/12/10 20/15/10 42/37/10
# Vertices: 30, normals: 7, texture coordinates: 30, faces: 16

o obj3
v 0.122765 0.05687502 -0.34825098
v 0.122765 0.05669501 -0.25888699
v -0.122765 0.05669501 -0.25888699
v -0.122765 0.05687502 -0.34825098
v 0.122765 0.05669501 -0.25888699
v 0.075107 0.272723 -0.29854299
v -0.075107 0.272723 -0.29854299
v -0.122765 0.05669501 -0.25888699
v -0.01818 0.55978003 -0.700519
v -0.075107 0.272723 -0.29854299
v 0.075107 0.272723 -0.29854299
v 0.01818 0.55978003 -0.700519
v -0.018071 0.53225002 -0.73236296
v 0.018071 0.53225002 -0.73236296
v 0.122765 0.05687502 -0.34825098
v -0.122765 0.05687502 -0.34825098
v -0.018071 0.53225002 -0.73236296
v -0.01818 0.55978003 -0.700519
v 0.01818 0.55978003 -0.700519
v 0.018071 0.53225002 -0.73236296
v -0.075107 0.272723 -0.29854299
v -0.122765 0.05687502 -0.34825098
v -0.122765 0.05669501 -0.25888699
v -0.01818 0.55978003 -0.700519
v -0.018071 0.53225002 -0.73236296
v 0.122765 0.05687502 -0.34825098
v 0.018071 0.53225002 -0.73236296
v 0.01818 0.55978003 -0.700519
v 0.075107 0.272723 -0.29854299
v 0.122765 0.05669501 -0.25888699
vn 0 -1 -0.00201
vn 0 0.18055 0.98357
vn 0 0.8138 0.58115
vn 0 -0.62849 -0.77782
vn 0 0.75649 -0.65401
vn -0.9805 0.19618 -0.01155
vn -0.97988 0.19935 -0.00959
vn -0.9765 0.21551 0.00043
vn -0.98062 0.19558 -0.01192
vn 0.97988 0.19935 -0.00959
vn 0.98062 0.19558 -0.01192
vn 0.9805 0.19618 -0.01155
vn 0.9765 0.21551 0.00043
vt 0.15557 0.11099
vt 0.10321 0.11099
vt 0.10323 0.25486
vt 0.15559 0.25485
vt 0.3053 0.11281
vt 0.17658 0.14063
vt 0.1765 0.22865
vt 0.30518 0.25668
vt 0.66214 0.30122
vt 0.95058 0.34224
vt 0.95291 0.25426
vt 0.66271 0.27992
vt 0.68111 0.23904
vt 0.68112 0.21786
vt 0.32301 0.1565
vt 0.32301 0.30037
vt 0.9227 0.22717
vt 0.94737 0.22723
vt 0.94737 0.20593
vt 0.9227 0.20599
vt 0.83872 0.21329
vt 0.9223 0.11027
vt 0.9548 0.15128
vt 0.55833 0.13487
vt 0.55923 0.11024
usemtl mat0
f 43/38/16 44/39/16 45/40/16
f 45/40/16 46/41/16 43/38/16
f 47/42/17 48/43/17 49/44/17
f 49/44/17 50/45/17 47/42/17
f 51/46/18 52/47/18 53/48/18
f 53/48/18 54/49/18 51/46/18
f 55/50/19 56/51/19 57/52/19
f 57/52/19 58/53/19 55/50/19
f 59/54/20 60/55/20 61/56/20
f 61/56/20 62/57/20 59/54/20
f 63/58/21 64/59/22 65/60/23
f 66/61/24 67/62/24 64/59/22
f 64/59/22 63/58/21 66/61/24
f 68/59/25 69/62/26 70/61/26
f 70/61/26 71/58/27 68/59/25
f 71/58/27 72/60/28 68/59/25
# Vertices: 30, normals: 13, texture coordinates: 25, faces: 16

o obj4
v -0.219538 0.00352399 0.25799
v -0.219538 0.00352401 -0.29778501
v -0.219538 0.12919701 -0.29778501
v -0.219538 0.09006799 0.25801501
v -0.40084299 1E-08 -0.29778501
v -0.40084299 -1E-08 0.25799
v -0.40084299 0.05900099 0.25802499
v -0.40084299 0.07842401 -0.29778501
v -0.40084299 -1E-08 0.25799
v -0.40084299 1E-08 -0.29778501
v -0.219538 0.00352401 -0.29778501
v -0.219538 0.00352399 0.25799
v -0.40084299 -1E-08 0.25799
v -0.219538 0.00352399 0.25799
v -0.219538 0.09006799 0.25801501
v -0.40084299 0.05900099 0.25802499
v -0.40084299 1E-08 -0.29778501
v -0.40084299 0.07842401 -0.29778501
v -0.219538 0.12919701 -0.29778501
v -0.219538 0.00352401 -0.29778501
v -0.219538 0.09006799 0.25801501
v -0.219538 0.25700301 -0.08404899
v -0.40084299 0.182735 -0.08404899
v -0.40084299 0.05900099 0.25802499
v -0.219538 0.12919701 -0.29778501
v -0.40084299 0.07842401 -0.29778501
v -0.40084299 0.182735 -0.08404899
v -0.219538 0.25700301 -0.08404899
v -0.219538 0.25700301 -0.08404899
v -0.40084299 0.182735 -0.08404899
vn 1 -0 0
vn -1 0 0
vn 0.01943 -0.99981 0
vn 7E-05 -0.00041 1
vn -0 0 -1
vn -0.25828 0.88915 0.37777
vn -0.29002 0.84103 -0.45668
vt 0.94327 0.39519
vt 0.94324 0.72084
vt 0.8696 0.72083
vt 0.89256 0.39517
vt 0.79948 0.70957
vt 0.47383 0.70954
vt 0.47382 0.67497
vt 0.79949 0.66362
vt 0.79827 0.8558
vt 0.47262 0.85578
vt 0.47263 0.74955
vt 0.79828 0.74957
vt 0.53846 0.43066
vt 0.43225 0.43284
vt 0.43121 0.38215
vt 0.53774 0.3961
vt 0.86437 0.75513
vt 0.91032 0.75517
vt 0.9379 0.86143
vt 0.86426 0.86136
vt 0.58208 0.42454
vt 0.80435 0.41891
vt 0.78908 0.53156
vt 0.57659 0.53152
vt 0.43704 0.47393
vt 0.54605 0.46181
vt 0.54603 0.60103
vt 0.43364 0.61967
vt 0.79473 0.59559
vt 0.67426 0.60249
usemtl mat0
f 73/63/29 74/64/29 75/65/29
f 75/65/29 76/66/29 73/63/29
f 77/67/30 78/68/30 79/69/30
f 79/69/30 80/70/30 77/67/30
f 81/71/31 82/72/31 83/73/31
f 83/73/31 84/74/31 81/71/31
f 85/75/32 86/76/32 87/77/32
f 87/77/32 88/78/32 85/75/32
f 89/79/33 90/80/33 91/81/33
f 91/81/33 92/82/33 89/79/33
f 93/83/34 94/84/34 95/85/34
f 95/85/34 96/86/34 93/83/34
f 97/87/35 98/88/35 99/89/35
f 99/89/35 100/90/35 97/87/35
f 75/65/29 101/91/29 76/66/29
f 79/69/30 102/92/30 80/70/30
# Vertices: 30, normals: 7, texture coordinates: 30, faces: 16

o obj5
v -0.115427 0.67959599 0.29865304
v 0.115427 0.67959599 0.29865304
v 0.086985 0.74271201 0.20355703
v -0.086985 0.74271201 0.20355703
v 0.101703 0.59745501 0.41484102
v -0.101703 0.59745501 0.41484102
v -0.119444 0.762784 0.11838103
v 0.119444 0.762784 0.11838103
v 0.087274 0.80443698 -0.06320597
v -0.087274 0.80443698 -0.06320597
v 0.119444 0.762784 0.11838103
v -0.119444 0.762784 0.11838103
v -0.073099 0.42927796 0.54757001
v -0.138539 0.43673699 0.34227102
v 0.138539 0.43673699 0.34227102
v 0.073099 0.42927796 0.54757001
v -0.062968 0.43847797 0.56131204
v -0.073099 0.42927796 0.54757001
v 0.073099 0.42927796 0.54757001
v 0.062968 0.43847797 0.56131204
v -0.101703 0.59745501 0.41484102
v -0.062968 0.43847797 0.56131204
v 0.062968 0.43847797 0.56131204
v 0.101703 0.59745501 0.41484102
v -0.20785899 0.66942901 -0.09268097
v -0.087274 0.80443698 -0.06320597
v 0.087274 0.80443698 -0.06320597
v 0.20785899 0.66942901 -0.09268097
v 0.20785899 0.66942901 -0.09268097
v 0.201646 0.536255 -0.05913998
v -0.201646 0.536255 -0.05913998
v -0.20785899 0.66942901 -0.09268097
v -0.138539 0.43673699 0.34227102
v -0.18015701 0.44148 0.21170702
v 0.18015701 0.44148 0.21170702
v 0.138539 0.43673699 0.34227102
v -0.18015701 0.44148 0.21170702
v -0.201646 0.536255 -0.05913998
v 0.201646 0.536255 -0.05913998
v 0.18015701 0.44148 0.21170702
v 0.17743701 0.58428799 0.15301403
v 0.201646 0.536255 -0.05913998
v 0.17483801 0.67894601 0.08243803
v 0.18015701 0.44148 0.21170702
v 0.153116 0.61146598 0.26866004
v 0.20785899 0.66942901 -0.09268097
v 0.134049 0.55654399 0.38084602
v 0.138539 0.43673699 0.34227102
v -0.17743701 0.58428799 0.15301403
v -0.17483801 0.67894601 0.08243803
v -0.201646 0.536255 -0.05913998
v -0.18015701 0.44148 0.21170702
v -0.153116 0.61146598 0.26866004
v -0.20785899 0.66942901 -0.09268097
v -0.134049 0.55654399 0.38084602
v -0.138539 0.43673699 0.34227102
v 0.062968 0.43847797 0.56131204
v 0.073099 0.42927796 0.54757001
v 0.134049 0.55654399 0.38084602
v 0.101703 0.59745501 0.41484102
v 0.101703 0.59745501 0.41484102
v 0.134049 0.55654399 0.38084602
v 0.153116 0.61146598 0.26866004
v 0.115427 0.67959599 0.29865304
v 0.20785899 0.66942901 -0.09268097
v 0.087274 0.80443698 -0.06320597
v 0.119444 0.762784 0.11838103
v 0.17483801 0.67894601 0.08243803
v -0.062968 0.43847797 0.56131204
v -0.101703 0.59745501 0.41484102
v -0.134049 0.55654399 0.38084602
v -0.073099 0.42927796 0.54757001
v -0.101703 0.59745501 0.41484102
v -0.115427 0.67959599 0.29865304
v -0.153116 0.61146598 0.26866004
v -0.134049 0.55654399 0.38084602
v -0.20785899 0.66942901 -0.09268097
v -0.17483801 0.67894601 0.08243803
v -0.119444 0.762784 0.11838103
v -0.087274 0.80443698 -0.06320597
v 0.138539 0.43673699 0.34227102
v 0.134049 0.55654399 0.38084602
v 0.073099 0.42927796 0.54757001
v -0.138539 0.43673699 0.34227102
v -0.073099 0.42927796 0.54757001
v -0.134049 0.55654399 0.38084602
vn 0 0.82333 0.56757
vn 0 0.83319 0.55299
vn 0 0.81655 0.57727
vn 0 0.9743 0.22525
vn 0 0.97469 0.22358
vn 0 0.97334 0.22937
vn 0 -0.99934 -0.03631
vn 0 -0.83097 0.55632
vn 0 0.67759 0.73544
vn 0 0.2133 -0.97699
vn 0 -0.24423 -0.96972
vn 0 -0.99934 -0.0363
vn 0 -0.94388 -0.33028
vn 0.99009 0.07677 0.11758
vn 0.98985 0.04232 0.13565
vn 0.99029 0.06319 0.12382
vn 0.98018 0.04543 0.19284
vn 0.97175 0.04086 0.23246
vn 0.98269 0.00081 0.18526
vn 0.96849 0.02365 0.24793
vn -0.99009 0.07677 0.11758
vn -0.99029 0.06319 0.12382
vn -0.98985 0.04232 0.13565
vn -0.98018 0.04543 0.19284
vn -0.97175 0.04086 0.23246
vn -0.98269 0.00081 0.18526
vn -0.96849 0.02365 0.24793
vn 0.83739 0.24372 0.48927
vn 0.86927 0.35873 0.34011
vn 0.78631 0.61517 0.0573
vn -0.83739 0.24372 0.48927
vn -0.83739 0.24372 0.48927
vn -0.86927 0.35873 0.34011
vn -0.78631 0.61517 0.0573
vn 0.95162 -0.06129 0.30111
vn -0.95162 -0.06129 0.30111
vt 0.04463 0.70844
vt 0.17426 0.70843
vt 0.15828 0.64435
vt 0.06059 0.64435
vt 0.16655 0.78833
vt 0.05234 0.78834
vt 0.07778 0.53907
vt 0.21192 0.53907
vt 0.19385 0.43445
vt 0.09584 0.43445
vt 0.17651 0.59521
vt 0.04237 0.59521
vt 0.24105 0.74673
vt 0.2043 0.86209
vt 0.35989 0.86209
vt 0.32314 0.74674
vt 0.25045 0.7192
vt 0.24477 0.72848
vt 0.32686 0.72847
vt 0.32117 0.71918
vt 0.05127 0.80248
vt 0.07302 0.92386
vt 0.14374 0.92386
vt 0.16549 0.80248
vt 0.02449 0.33217
vt 0.09219 0.40978
vt 0.1902 0.4098
vt 0.25793 0.33221
vt 0.26459 0.30637
vt 0.2611 0.22925
vt 0.03464 0.22925
vt 0.03115 0.30637
vt 0.20589 0.88521
vt 0.18251 0.95856
vt 0.38483 0.9586
vt 0.36148 0.88523
vt 0.04478 0.04067
vt 0.03273 0.2018
vt 0.25919 0.20178
vt 0.24711 0.04065
vt 0.52576 0.60171
vt 0.62998 0.53667
vt 0.58046 0.63915
vt 0.46847 0.53667
vt 0.46846 0.63843
vt 0.67297 0.60074
vt 0.3979 0.63132
vt 0.39535 0.56067
vt 0.46846 0.63843
vt 0.3979 0.63131
vt 0.40955 0.79366
vt 0.39898 0.79105
vt 0.37696 0.6704
vt 0.41192 0.67038
vt 0.50916 0.77513
vt 0.47528 0.76652
vt 0.47291 0.69563
vt 0.51975 0.69558
vt 0.54787 0.83481
vt 0.44508 0.83478
vt 0.45708 0.94006
vt 0.51597 0.92961
vt 0.50907 0.77512
vt 0.51975 0.69558
vt 0.47291 0.69558
vt 0.47521 0.76648
vt 0.54787 0.83481
vt 0.51598 0.92961
vt 0.45708 0.94006
vt 0.30416 0.41987
vt 0.23344 0.41986
vt 0.27152 0.53645
usemtl mat1
f 103/93/36 104/94/36 105/95/37
f 105/95/37 106/96/37 103/93/36
f 107/97/38 104/94/36 103/93/36
f 103/93/36 108/98/38 107/97/38
f 109/99/39 110/100/39 111/101/40
f 111/101/40 112/102/40 109/99/39
f 106/96/41 105/95/41 113/103/39
f 113/103/39 114/104/39 106/96/41
f 115/105/42 116/106/42 117/107/42
f 117/107/42 118/108/42 115/105/42
f 119/109/43 120/110/43 121/111/43
f 121/111/43 122/112/43 119/109/43
f 123/113/44 124/114/44 125/115/44
f 125/115/44 126/116/44 123/113/44
f 127/117/45 128/118/45 129/119/45
f 129/119/45 130/120/45 127/117/45
f 131/121/46 132/122/46 133/123/46
f 133/123/46 134/124/46 131/121/46
f 135/125/47 136/126/47 137/127/47
f 137/127/47 138/128/47 135/125/47
f 139/129/48 140/130/48 141/131/48
f 141/131/48 142/132/48 139/129/48
f 143/133/49 144/134/50 145/135/51
f 143/133/49 146/136/52 144/134/50
f 143/133/49 147/137/53 146/136/52
f 145/135/51 144/134/50 148/138/54
f 149/139/55 150/140/55 146/136/52
f 146/136/52 147/137/53 149/139/55
f 151/133/56 152/135/57 153/134/58
f 151/133/56 153/134/58 154/136/59
f 151/133/56 154/136/59 155/141/60
f 152/135/57 156/138/61 153/134/58
f 157/142/62 155/141/60 154/136/59
f 154/136/59 158/140/62 157/142/62
f 159/143/63 160/144/63 161/145/63
f 161/145/63 162/146/63 159/143/63
f 163/147/64 164/148/64 165/149/64
f 165/149/64 166/150/64 163/147/64
f 167/151/65 168/152/65 169/153/65
f 169/153/65 170/154/65 167/151/65
f 171/143/66 172/146/66 173/145/67
f 173/145/67 174/144/67 171/143/66
f 175/155/68 176/156/68 177/157/68
f 177/157/68 178/158/68 175/155/68
f 179/159/69 180/160/69 181/161/69
f 181/161/69 182/152/69 179/159/69
f 183/162/70 184/163/70 185/164/70
f 186/162/71 187/164/71 188/163/71
# Vertices: 86, normals: 36, texture coordinates: 72, faces: 48

o obj6
v -0.113332 0.48885801 0.06363002
v -0.133902 0.437043 0.21170702
v 0.133902 0.437043 0.21170702
v 0.113332 0.48885801 0.06363002
v 0.18104701 0.31676002 -0.30544497
v 0.113332 0.48885801 0.06363002
v 0.133902 0.437043 0.21170702
v 0.18104701 0.31676 0.14955902
v 0.215091 0.23006399 0.28151302
v 0.215087 0.23006402 -0.29147099
v -0.16119599 0.04836601 -0.25753501
v -0.215087 0.23006402 -0.29147099
v 0.215087 0.23006402 -0.29147099
v 0.16119599 0.04836601 -0.25753501
v -0.16119599 0.04836601 -0.25753501
v 0.16119599 0.04836601 -0.25753501
v 0.16119599 0.04836599 0.13785701
v -0.16119599 0.04836599 0.13785701
v -0.18104701 0.31676002 -0.30544497
v -0.113332 0.48885801 0.06363002
v 0.113332 0.48885801 0.06363002
v 0.18104701 0.31676002 -0.30544497
v -0.215087 0.23006402 -0.29147099
v -0.18104701 0.31676002 -0.30544497
v 0.18104701 0.31676002 -0.30544497
v 0.215087 0.23006402 -0.29147099
v -0.215091 0.23006399 0.28151302
v -0.16119599 0.04836599 0.13785701
v 0.16119599 0.04836599 0.13785701
v 0.215091 0.23006399 0.28151302
v 0.215091 0.23006399 0.28151302
v 0.133902 0.437043 0.21170702
v -0.133902 0.437043 0.21170702
v -0.215091 0.23006399 0.28151302
v -0.18104701 0.31676002 -0.30544497
v -0.18104701 0.31676 0.14955902
v -0.133902 0.437043 0.21170702
v -0.113332 0.48885801 0.06363002
v -0.215091 0.23006399 0.28151302
v -0.215087 0.23006402 -0.29147099
v 0.215091 0.23006399 0.28151302
v 0.16119599 0.04836599 0.13785701
v 0.16119599 0.04836601 -0.25753501
v 0.215087 0.23006402 -0.29147099
v -0.16119599 0.04836601 -0.25753501
v -0.16119599 0.04836599 0.13785701
v -0.215091 0.23006399 0.28151302
v -0.215087 0.23006402 -0.29147099
v 0.215091 0.23006399 0.28151302
v 0.18104701 0.31676 0.14955902
v 0.133902 0.437043 0.21170702
v -0.215091 0.23006399 0.28151302
v -0.133902 0.437043 0.21170702
v -0.18104701 0.31676 0.14955902
vn 0 0.94388 0.33028
vn 0.93076 0.36563 -8E-05
vn 0.93061 0.36602 -0.00029
vn 0.93072 0.36574 -0.00014
vn 0.93082 0.36549 -0
vn 0 -0.1836 -0.983
vn 0 -1 0
vn 0 0.90631 -0.42261
vn 0 -0.15913 -0.98726
vn 0 -0.6202 0.78444
vn 0 0.31958 0.94756
vn -0.93076 0.36563 -8E-05
vn -0.93072 0.36574 -0.00014
vn -0.93061 0.36602 -0.00029
vn -0.93082 0.36549 -0
vn 0.95872 -0.28436 -0
vn -0.95872 -0.28436 -0
vn 0.93098 0.36507 -0.00033
vn -0.93098 0.36507 -0.00033
vt 0.56671 0.20606
vt 0.65472 0.21826
vt 0.65582 0.06788
vt 0.56765 0.07879
vt 0.58216 0.72665
vt 0.78954 0.62308
vt 0.87265 0.65449
vt 0.83766 0.72699
vt 0.91168 0.77938
vt 0.58994 0.77896
vt 0.57668 0.48457
vt 0.68046 0.51487
vt 0.68054 0.27331
vt 0.57674 0.30354
vt 0.55765 0.48781
vt 0.55769 0.30678
vt 0.33566 0.30674
vt 0.33563 0.48777
vt 0.32456 0.24001
vt 0.55323 0.20201
vt 0.55324 0.07473
vt 0.32458 0.03669
vt 0.70584 0.51137
vt 0.75516 0.49226
vt 0.75516 0.28893
vt 0.70585 0.26982
vt 0.82303 0.2595
vt 0.95309 0.22922
vt 0.95307 0.04819
vt 0.823 0.01794
vt 0.79908 0.0233
vt 0.67643 0.06891
vt 0.67645 0.21929
vt 0.79911 0.26486
vt 0.58216 0.72665
vt 0.87265 0.65449
vt 0.91168 0.77938
vt 0.58994 0.77896
vt 0.92239 0.80868
vt 0.84171 0.9151
vt 0.61969 0.91508
vt 0.60064 0.80865
vt 0.61963 0.91505
vt 0.84166 0.91515
vt 0.92237 0.80876
vt 0.60062 0.80862
vt 0.93417 0.62362
vt 0.88178 0.69765
vt 0.93888 0.75439
vt 0.93888 0.75439
usemtl mat1
f 189/165/72 190/166/72 191/167/72
f 191/167/72 192/168/72 189/165/72
f 193/169/73 194/170/74 195/171/74
f 195/171/74 196/172/75 193/169/73
f 197/173/76 198/174/76 193/169/73
f 193/169/73 196/172/75 197/173/76
f 199/175/77 200/176/77 201/177/77
f 201/177/77 202/178/77 199/175/77
f 203/179/78 204/180/78 205/181/78
f 205/181/78 206/182/78 203/179/78
f 207/183/79 208/184/79 209/185/79
f 209/185/79 210/186/79 207/183/79
f 211/187/80 212/188/80 213/189/80
f 213/189/80 214/190/80 211/187/80
f 215/191/81 216/192/81 217/193/81
f 217/193/81 218/194/81 215/191/81
f 219/195/82 220/196/82 221/197/82
f 221/197/82 222/198/82 219/195/82
f 223/199/83 224/172/84 225/200/85
f 225/200/85 226/170/85 223/199/83
f 227/201/86 224/172/84 223/199/83
f 223/199/83 228/202/86 227/201/86
f 229/203/87 230/204/87 231/205/87
f 231/205/87 232/206/87 229/203/87
f 233/207/88 234/208/88 235/209/88
f 235/209/88 236/210/88 233/207/88
f 237/211/89 238/212/89 239/213/89
f 240/211/90 241/214/90 242/212/90
# Vertices: 54, normals: 19, texture coordinates: 50, faces: 28
